<?xml version="1.0" encoding="UTF-8" standalone="no"?>
<svg width="14px" height="15px" viewBox="0 0 14 15" version="1.1" xmlns="http://www.w3.org/2000/svg" xmlns:xlink="http://www.w3.org/1999/xlink" xmlns:sketch="http://www.bohemiancoding.com/sketch/ns">
    <!-- Generator: Sketch 3.3.3 (12081) - http://www.bohemiancoding.com/sketch -->
    <title>Imported Layers</title>
    <desc>Created with Sketch.</desc>
    <defs></defs>
    <g id="Page-1" stroke="none" stroke-width="1" fill="none" fill-rule="evenodd" sketch:type="MSPage">
        <g id="Imported-Layers" sketch:type="MSLayerGroup">
            <path d="M2.115,11.136 L2.115,11.144 C1.402,11.144 0.823,11.723 0.823,12.437 C0.823,13.151 1.402,13.729 2.115,13.729 L2.115,13.738 L13.127,13.738 L13.127,11.136 L2.115,11.136" id="Fill-1" fill="#FFFFFF" sketch:type="MSShapeGroup"></path>
            <path d="M12.594,14.237 L2.536,14.237 C2.5,14.237 2.464,14.233 2.43,14.226 C1.553,14.167 0.855,13.387 0.855,12.437 C0.855,11.486 1.552,10.706 2.429,10.647 C2.464,10.64 2.499,10.636 2.536,10.636 L12.594,10.636 C12.871,10.636 13.095,10.859 13.095,11.136 L13.095,13.737 C13.095,14.014 12.871,14.237 12.594,14.237 L12.594,14.237 Z M2.625,13.237 L12.095,13.237 L12.095,11.636 L2.627,11.636 C2.597,11.641 2.567,11.644 2.536,11.644 C2.161,11.644 1.855,11.999 1.855,12.437 C1.855,12.874 2.161,13.229 2.536,13.229 C2.566,13.229 2.595,13.232 2.625,13.237 L2.625,13.237 Z" id="Fill-2" fill="#5C4862" sketch:type="MSShapeGroup"></path>
            <path d="M12.594,12.966 L1.355,12.966 C1.079,12.966 0.855,12.743 0.855,12.466 L0.855,2.485 C0.855,1.658 1.528,0.985 2.355,0.985 L12.594,0.985 C12.871,0.985 13.095,1.208 13.095,1.485 L13.095,12.466 C13.095,12.743 12.871,12.966 12.594,12.966 L12.594,12.966 Z M1.855,11.966 L12.095,11.966 L12.095,1.985 L2.355,1.985 C2.08,1.985 1.855,2.209 1.855,2.485 L1.855,11.966 L1.855,11.966 Z" id="Fill-3" fill="#8491A5" sketch:type="MSShapeGroup"></path>
            <path d="M2.115,11.136 L2.115,11.144 C1.402,11.144 0.823,11.723 0.823,12.437 C0.823,13.151 1.402,13.729 2.115,13.729 L2.115,13.738 L13.127,13.738 L13.127,11.136 L2.115,11.136" id="Fill-4" fill="#57D5C1" sketch:type="MSShapeGroup"></path>
            <path d="M12.594,14.237 L2.536,14.237 C2.5,14.237 2.464,14.233 2.43,14.226 C1.553,14.167 0.855,13.387 0.855,12.437 C0.855,11.486 1.552,10.706 2.429,10.647 C2.464,10.64 2.499,10.636 2.536,10.636 L12.594,10.636 C12.871,10.636 13.095,10.859 13.095,11.136 L13.095,13.737 C13.095,14.014 12.871,14.237 12.594,14.237 L12.594,14.237 Z M2.625,13.237 L12.095,13.237 L12.095,11.636 L2.627,11.636 C2.597,11.641 2.567,11.644 2.536,11.644 C2.161,11.644 1.855,11.999 1.855,12.437 C1.855,12.874 2.161,13.229 2.536,13.229 C2.566,13.229 2.595,13.232 2.625,13.237 L2.625,13.237 Z" id="Fill-5" fill="#8491A5" sketch:type="MSShapeGroup"></path>
            <path d="M10.644,6.275 L9.196,5.551 L7.749,6.275 L7.749,1.485 L10.644,1.485 L10.644,6.275" id="Fill-6" fill="#57D5C1" sketch:type="MSShapeGroup"></path>
            <path d="M10.643,6.775 C10.567,6.775 10.49,6.757 10.42,6.722 L9.196,6.11 L7.973,6.722 C7.816,6.799 7.633,6.791 7.486,6.7 C7.339,6.609 7.249,6.448 7.249,6.275 L7.249,1.485 C7.249,1.208 7.472,0.985 7.749,0.985 L10.643,0.985 C10.92,0.985 11.144,1.208 11.144,1.485 L11.144,6.275 C11.144,6.448 11.054,6.609 10.906,6.7 C10.826,6.75 10.735,6.775 10.643,6.775 L10.643,6.775 Z M9.196,5.051 C9.272,5.051 9.349,5.069 9.42,5.104 L10.143,5.466 L10.143,1.985 L8.249,1.985 L8.249,5.466 L8.972,5.104 C9.043,5.069 9.12,5.051 9.196,5.051 L9.196,5.051 Z" id="Fill-7" fill="#8491A5" sketch:type="MSShapeGroup"></path>
            <path d="M3.975,11.377 C3.699,11.377 3.475,11.154 3.475,10.877 L3.475,2.304 C3.475,2.028 3.699,1.804 3.975,1.804 C4.252,1.804 4.476,2.028 4.476,2.304 L4.476,10.877 C4.476,11.154 4.252,11.377 3.975,11.377" id="Fill-8" fill="#8491A5" sketch:type="MSShapeGroup"></path>
        </g>
    </g>
</svg>