<?xml version="1.0" encoding="UTF-8" standalone="no"?>
<svg width="15px" height="17px" viewBox="0 0 15 17" version="1.1" xmlns="http://www.w3.org/2000/svg" xmlns:xlink="http://www.w3.org/1999/xlink" xmlns:sketch="http://www.bohemiancoding.com/sketch/ns">
    <!-- Generator: Sketch 3.3.3 (12081) - http://www.bohemiancoding.com/sketch -->
    <title>icn_notification_off</title>
    <desc>Created with Sketch.</desc>
    <defs></defs>
    <g id="Style-Guide" stroke="none" stroke-width="1" fill="none" fill-rule="evenodd" sketch:type="MSPage">
        <g id="Dashboard---default-v1" sketch:type="MSArtboardGroup" transform="translate(-1000.000000, -24.000000)">
            <g id="header" sketch:type="MSLayerGroup">
                <g id="header-right" transform="translate(813.000000, 19.000000)" sketch:type="MSShapeGroup">
                    <g id="icn_notification_off" transform="translate(187.000000, 5.000000)">
                        <path d="M8.17324912,1.45089123 C8.17324912,2.00499649 7.72367719,2.45378246 7.16957193,2.45378246 C6.6146807,2.45378246 6.16589474,2.00499649 6.16589474,1.45089123 C6.16589474,0.896 6.6146807,0.447214035 7.16957193,0.447214035 C7.72367719,0.447214035 8.17324912,0.896 8.17324912,1.45089123" id="Fill-1" fill="#C1CCDC"></path>
                        <path d="M5.70846316,14.1316491 C5.65658947,14.2856982 5.62200702,14.447607 5.62200702,14.6189474 C5.62200702,15.4740772 6.31522807,16.1665123 7.16957193,16.1665123 C8.02391579,16.1665123 8.71635088,15.4740772 8.71635088,14.6189474 C8.71635088,14.447607 8.68255439,14.2856982 8.62989474,14.1316491 L5.70846316,14.1316491" id="Fill-2" fill="#C1CCDC"></path>
                        <path d="M7.16957193,2.09381053 C4.5090807,2.09381053 2.35239298,4.25049825 2.35239298,6.91098947 L2.35239298,11.7776842 L0.568252632,14.2809825 L13.7708912,14.2809825 L11.9867509,11.7776842 L11.9867509,6.91098947 C11.9867509,4.25049825 9.83006316,2.09381053 7.16957193,2.09381053 L7.16957193,2.09381053 Z" id="Fill-3" fill="#ECF1F7"></path>
                        <path d="M7.17158579,2.09381053 C4.51028293,2.09381053 2.35293727,4.25049825 2.35293727,6.91098947 L2.35293727,11.7776842 L0.568252632,14.2809825 L13.7749189,14.2809825 L11.9902343,11.7776842 L11.9902343,6.91098947 C11.9902343,4.25049825 9.83288865,2.09381053 7.17158579,2.09381053 L7.17158579,2.09381053 Z" id="Stroke-4" stroke="#8491A5" stroke-linecap="round" stroke-linejoin="round"></path>
                    </g>
                </g>
            </g>
        </g>
    </g>
</svg>