<svg width="31" height="18" viewBox="0 0 31 18" fill="none" xmlns="http://www.w3.org/2000/svg">
<path d="M21.3906 11.3464L25.2792 6.28711" stroke="#8491A5" stroke-width="2.0813" stroke-linecap="round" stroke-linejoin="round"/>
<path d="M13.4844 8.0871L17.815 11.7642" stroke="#8491A5" stroke-width="2.0813" stroke-linecap="round" stroke-linejoin="round"/>
<path d="M5.65723 12.3236L9.71879 8.24786" stroke="#8491A5" stroke-width="2.0813" stroke-linecap="round" stroke-linejoin="round"/>
<path d="M5.65672 12.3235C5.95443 12.6226 6.17407 12.9907 6.2962 13.3953C6.41833 13.7999 6.43918 14.2284 6.3569 14.643C6.27463 15.0576 6.09176 15.4455 5.8245 15.7722C5.55724 16.099 5.21382 16.3546 4.82465 16.5164C4.43547 16.6782 4.01255 16.7412 3.5933 16.6999C3.17406 16.6586 2.77143 16.5142 2.42106 16.2795C2.07069 16.0448 1.78338 15.7271 1.58457 15.3544C1.38576 14.9817 1.28158 14.5656 1.28125 14.1428C1.28109 13.7327 1.3787 13.3285 1.56593 12.9639C1.75315 12.5993 2.02456 12.285 2.3575 12.0471" stroke="#57D5C1" stroke-width="2.0813" stroke-linecap="round" stroke-linejoin="round"/>
<path d="M9.71828 8.24782C9.42057 7.94874 9.20093 7.58062 9.0788 7.17605C8.95667 6.77148 8.93582 6.34293 9.0181 5.92834C9.10037 5.51376 9.28324 5.12592 9.5505 4.79916C9.81776 4.4724 10.1612 4.2168 10.5504 4.05498C10.9395 3.89317 11.3625 3.83013 11.7817 3.87144C12.2009 3.91276 12.6036 4.05716 12.9539 4.29185C13.3043 4.52655 13.5916 4.8443 13.7904 5.21699C13.9892 5.58968 14.0934 6.00581 14.0937 6.42854C14.0925 7.03619 13.8769 7.62378 13.4852 8.08711" stroke="#8491A5" stroke-width="2.0813" stroke-linecap="round" stroke-linejoin="round"/>
<path d="M25.3879 6.33213C24.8996 6.13091 24.4852 5.78328 24.2012 5.33675C23.9172 4.89022 23.7776 4.36658 23.8014 3.83741C23.8253 3.30824 24.0114 2.79937 24.3343 2.38035C24.6572 1.96133 25.1012 1.65261 25.6056 1.49639C26.11 1.34017 26.6502 1.34407 27.1523 1.50757C27.6543 1.67107 28.0939 1.98618 28.4108 2.40982C28.7276 2.83347 28.9064 3.34498 28.9226 3.87444C28.9388 4.4039 28.7917 4.92547 28.5014 5.36784" stroke="#57D5C1" stroke-width="2.0813" stroke-linecap="round" stroke-linejoin="round"/>
<path d="M21.3966 11.3464C21.7968 11.6475 22.1004 12.0596 22.27 12.5317C22.4396 13.0039 22.4679 13.5156 22.3512 14.0036C22.2345 14.4917 21.978 14.9348 21.6134 15.2784C21.2488 15.622 20.7919 15.8509 20.2992 15.9371C19.8064 16.0232 19.2993 15.9628 18.8404 15.7632C18.3815 15.5636 17.9908 15.2336 17.7165 14.8139C17.4422 14.3942 17.2964 13.9031 17.2969 13.4012C17.2974 12.8992 17.4443 12.4084 17.7194 11.9893" stroke="#8491A5" stroke-width="2.0813" stroke-linecap="round" stroke-linejoin="round"/>
</svg>
