<svg width="18" height="16" viewBox="0 0 18 16" fill="none" xmlns="http://www.w3.org/2000/svg">
<rect x="0.999939" y="5.04874" width="8.47896" height="6.41267" fill="#57D5C1"/>
<rect width="4.24352" height="6.40672" transform="matrix(0.965006 -0.262227 0.255449 0.966823 10.3758 5.42101)" fill="#57D5C1"/>
<path fill-rule="evenodd" clip-rule="evenodd" d="M10.3439 2.68916C10.333 2.64767 10.3573 2.60502 10.3982 2.5939L13.0116 1.88374C13.0525 1.87263 13.0946 1.89725 13.1055 1.93874L16.1119 13.3172C16.1229 13.3587 16.0986 13.4014 16.0577 13.4125L13.4442 14.1226C13.4033 14.1338 13.3613 14.1091 13.3503 14.0676L10.3439 2.68916ZM10.1692 7.43698V14.1813C10.1692 14.9975 9.5168 15.6591 8.71202 15.6591H1.76694C0.962156 15.6591 0.309753 14.9975 0.309753 14.1813V2.40146C0.309753 1.58531 0.962157 0.923687 1.76694 0.923687H8.71202C9.11534 0.923687 9.48039 1.08986 9.74423 1.35837C9.83678 1.30955 9.93595 1.27012 10.0409 1.24161L12.6543 0.531449C13.4317 0.320213 14.2307 0.788051 14.439 1.5764L17.4453 12.9549C17.6536 13.7432 17.1923 14.5535 16.415 14.7648L13.8015 15.4749C13.0242 15.6862 12.2252 15.2183 12.0169 14.43L10.1692 7.43698ZM1.69024 2.40146C1.69024 2.35851 1.72458 2.32369 1.76694 2.32369H4.54924V14.2591H1.76694C1.72458 14.2591 1.69024 14.2243 1.69024 14.1813V2.40146ZM5.92972 14.2591V2.32369H8.71202C8.75438 2.32369 8.78872 2.35851 8.78872 2.40146V14.1813C8.78872 14.2243 8.75438 14.2591 8.71202 14.2591H5.92972Z" fill="#8491A5"/>
</svg>
