<svg width="23" height="20" viewBox="0 0 23 20" fill="none" xmlns="http://www.w3.org/2000/svg">
<rect x="1" y="6.20551" width="11.0556" height="8.24486" fill="#57D5C1"/>
<rect x="13.2246" y="6.68414" width="5.5278" height="8.24486" transform="rotate(-15 13.2246 6.68414)" fill="#57D5C1"/>
<path fill-rule="evenodd" clip-rule="evenodd" d="M13.1831 3.17175C13.1688 3.11841 13.2004 3.06357 13.2538 3.04928L16.6614 2.13622C16.7147 2.12192 16.7695 2.15358 16.7838 2.20693L20.7038 16.8364C20.7181 16.8898 20.6864 16.9446 20.6331 16.9589L17.2255 17.8719C17.1721 17.8862 17.1173 17.8546 17.103 17.8012L13.1831 3.17175ZM12.9552 9.27609V17.9474C12.9552 18.9968 12.1046 19.8474 11.0552 19.8474H1.99961C0.950269 19.8474 0.0996094 18.9968 0.0996094 17.9474V2.80185C0.0996094 1.75251 0.950269 0.901855 1.99961 0.901855H11.0552C11.5811 0.901855 12.0571 1.1155 12.4011 1.46074C12.5218 1.39797 12.6511 1.34727 12.7879 1.31061L16.1955 0.397549C17.2091 0.125959 18.2509 0.727466 18.5225 1.74105L22.4425 16.3705C22.7141 17.3841 22.1125 18.426 21.099 18.6976L17.6914 19.6106C16.6778 19.8822 15.6359 19.2807 15.3644 18.2671L12.9552 9.27609ZM1.89961 2.80185C1.89961 2.74663 1.94438 2.70185 1.99961 2.70185H5.62741V18.0474H1.99961C1.94438 18.0474 1.89961 18.0026 1.89961 17.9474V2.80185ZM7.42741 18.0474V2.70185H11.0552C11.1104 2.70185 11.1552 2.74663 11.1552 2.80185V17.9474C11.1552 18.0026 11.1104 18.0474 11.0552 18.0474H7.42741Z" fill="#8491A5"/>
</svg>
